<?xml version="1.0" standalone="no"?>
<!DOCTYPE svg PUBLIC "-//W3C//DTD SVG 20010904//EN"
 "http://www.w3.org/TR/2001/REC-SVG-20010904/DTD/svg10.dtd">
<svg version="1.0" xmlns="http://www.w3.org/2000/svg"
 width="128.000000pt" height="128.000000pt" viewBox="0 0 128.000000 128.000000"
 preserveAspectRatio="xMidYMid meet">

<g transform="translate(0.000000,128.000000) scale(0.100000,-0.100000)"
fill="#000000" stroke="none">
<path d="M0 640 l0 -640 640 0 640 0 0 298 c0 291 0 299 -20 297 -20 -1 -41
-15 -23 -15 11 0 11 -85 0 -97 -4 -3 -7 -15 -7 -25 0 -10 -4 -18 -10 -18 -5 0
-10 -15 -10 -33 0 -20 -9 -44 -20 -57 -11 -13 -20 -29 -20 -36 0 -15 -33 -74
-41 -74 -3 0 -23 -12 -44 -26 -45 -30 -68 -26 -59 11 4 15 2 25 -5 25 -6 0
-11 5 -11 11 0 5 5 7 10 4 6 -3 10 -2 10 4 0 6 -13 8 -32 4 -38 -7 -48 -14
-30 -20 17 -6 15 -30 -4 -37 -9 -3 -14 -15 -12 -28 2 -19 -2 -24 -27 -26 -16
-2 -35 -10 -42 -19 -9 -12 -21 -14 -50 -8 -21 4 -47 8 -59 9 -34 4 -41 14 -47
70 -3 32 -15 70 -31 94 -31 50 -40 56 -56 37 -7 -8 -21 -15 -31 -15 -24 0 -40
-30 -28 -53 7 -12 5 -25 -7 -46 -16 -28 -16 -30 5 -52 11 -12 21 -26 21 -31 0
-10 2 -10 -38 1 -20 6 -32 6 -32 0 0 -13 -27 -11 -49 3 -15 9 -28 9 -55 1 -20
-6 -37 -7 -37 -2 -1 5 -2 15 -3 22 -1 6 -9 18 -19 26 -10 7 -16 19 -13 27 3 8
-3 23 -14 34 -22 22 -19 64 6 74 8 3 14 15 14 26 0 18 -3 19 -20 10 -11 -6
-20 -17 -20 -24 0 -7 -9 -21 -20 -31 -38 -35 -190 -2 -190 41 0 6 -6 17 -14
23 -7 6 -16 30 -20 53 -4 22 -10 46 -14 52 -13 20 -44 150 -49 204 -6 62 23
167 69 255 27 49 34 56 52 50 22 -7 35 -8 77 -5 22 2 25 6 22 26 -4 17 2 28
18 40 31 21 42 20 30 -3 -8 -15 -7 -20 6 -26 10 -3 13 -9 8 -13 -17 -12 -11
-37 12 -50 13 -7 23 -21 23 -31 0 -10 7 -24 15 -31 12 -10 22 -8 55 14 65 43
80 88 48 152 -8 18 -6 26 11 43 25 25 26 34 6 51 -22 18 -18 47 6 61 12 6 45
15 73 19 28 5 81 14 117 21 57 11 74 10 135 -5 249 -62 442 -276 474 -526 4
-31 8 76 9 248 l1 302 -640 0 -640 0 0 -640z m645 -480 c3 -5 1 -10 -4 -10 -6
0 -11 5 -11 10 0 6 2 10 4 10 3 0 8 -4 11 -10z m-185 -30 c-20 -13 -40 -13
-40 0 0 6 12 10 28 10 21 0 24 -2 12 -10z"/>
<path d="M761 1166 c-80 -24 -93 -37 -67 -65 9 -10 14 -25 11 -34 -10 -24 33
-106 61 -119 31 -14 99 14 90 37 -3 8 -1 17 5 21 5 3 8 19 5 35 -6 38 20 39
62 4 30 -25 72 -34 72 -15 0 24 -49 58 -101 70 -52 13 -53 14 -24 21 16 5 47
6 67 2 43 -6 53 12 15 26 -13 5 -29 16 -36 25 -18 22 -69 19 -160 -8z"/>
<path d="M112 948 c-14 -14 2 -38 27 -38 19 0 61 -40 61 -57 0 -29 80 -31 105
-3 18 20 17 20 -11 20 -41 0 -117 40 -129 68 -11 24 -34 29 -53 10z"/>
<path d="M748 745 c3 -34 10 -50 29 -65 26 -20 53 -27 53 -12 0 4 -5 25 -11
47 -13 46 -35 75 -58 75 -13 0 -15 -9 -13 -45z"/>
<path d="M401 744 c-28 -36 -31 -144 -3 -144 16 0 62 55 62 75 0 4 -7 13 -17
20 -9 7 -16 26 -16 44 0 17 -2 31 -3 31 -1 0 -12 -12 -23 -26z"/>
<path d="M655 738 c-19 -12 -19 -12 5 -19 41 -11 60 -10 60 5 0 8 -7 17 -16
20 -21 8 -26 7 -49 -6z"/>
<path d="M476 724 c-18 -18 -21 -34 -6 -34 21 0 71 31 65 40 -9 15 -42 12 -59
-6z"/>
<path d="M650 670 c-8 -5 -45 -10 -81 -10 -70 0 -80 -6 -109 -62 -7 -16 -18
-28 -24 -28 -23 0 -85 -93 -86 -128 0 -10 5 -9 22 2 12 9 28 16 35 16 19 0 16
-27 -4 -40 -15 -9 -14 -10 7 -4 14 4 40 6 58 5 21 -1 32 3 32 12 0 10 18 14
63 15 35 1 83 8 108 15 24 7 55 11 69 9 56 -8 105 -7 100 3 -3 6 -12 9 -21 8
-27 -4 -12 33 19 46 l26 12 -36 33 c-19 18 -56 39 -82 46 -26 7 -44 15 -41 18
5 6 -24 42 -34 42 -3 0 -13 -5 -21 -10z m121 -131 c15 -28 -3 -49 -29 -33 -30
19 -80 26 -102 14 -21 -11 -87 -4 -75 8 14 15 83 30 137 31 49 1 59 -2 69 -20z
m-261 -42 c0 -19 -21 -37 -42 -37 -22 0 -23 8 -1 32 19 21 43 24 43 5z"/>
<path d="M340 400 c0 -5 9 -10 20 -10 11 0 20 5 20 10 0 6 -9 10 -20 10 -11 0
-20 -4 -20 -10z"/>
<path d="M496 401 c-8 -12 21 -34 34 -26 8 5 8 11 -1 21 -13 16 -25 18 -33 5z"/>
<path d="M590 356 c0 -2 7 -7 16 -10 8 -3 12 -2 9 4 -6 10 -25 14 -25 6z"/>
</g>
</svg>
